<?xml version="1.0" encoding="UTF-8" standalone="no"?>
<!-- Created with Inkscape (http://www.inkscape.org/) -->

<svg
   width="1000"
   height="1000"
   viewBox="0 0 264.58333 264.58333"
   version="1.1"
   id="svg1"
   inkscape:export-filename="/Users/jan/Documents/apple-touch-icon.png"
   inkscape:export-xdpi="96"
   inkscape:export-ydpi="96"
   inkscape:version="1.4.2 (ebf0e940, 2025-05-08)"
   sodipodi:docname="favicon.svg"
   xmlns:inkscape="http://www.inkscape.org/namespaces/inkscape"
   xmlns:sodipodi="http://sodipodi.sourceforge.net/DTD/sodipodi-0.dtd"
   xmlns="http://www.w3.org/2000/svg"
   xmlns:svg="http://www.w3.org/2000/svg">
  <sodipodi:namedview
     id="namedview1"
     pagecolor="#ffffff"
     bordercolor="#000000"
     borderopacity="0.25"
     inkscape:showpageshadow="2"
     inkscape:pageopacity="0.0"
     inkscape:pagecheckerboard="0"
     inkscape:deskcolor="#d1d1d1"
     inkscape:document-units="mm"
     inkscape:export-bgcolor="#00000000"
     inkscape:zoom="0.63"
     inkscape:cx="570.63492"
     inkscape:cy="449.20635"
     inkscape:window-width="1856"
     inkscape:window-height="973"
     inkscape:window-x="39"
     inkscape:window-y="32"
     inkscape:window-maximized="0"
     inkscape:current-layer="layer1" />
  <defs
     id="defs1">
    <rect
       x="37.5"
       y="84.375"
       width="568.75"
       height="625"
       id="rect36" />
    <rect
       x="519.23077"
       y="680.76923"
       width="273.07692"
       height="230.76923"
       id="rect9" />
    <rect
       x="379.36508"
       y="120.63492"
       width="238.09525"
       height="200"
       id="rect3" />
    <rect
       x="109.52381"
       y="323.80951"
       width="566.66669"
       height="490.4762"
       id="rect1" />
    <clipPath
       clipPathUnits="userSpaceOnUse"
       id="clipPath15">
      <circle
         style="font-variation-settings:'wght' 400;fill:#ff7f2a;stroke-width:0.480288"
         id="circle16"
         cx="132.41249"
         cy="132.6826"
         r="130.2155" />
    </clipPath>
    <clipPath
       clipPathUnits="userSpaceOnUse"
       id="clipPath16">
      <circle
         style="font-variation-settings:'wght' 400;fill:#ff7f2a;stroke-width:0.480288"
         id="circle17"
         cx="132.41249"
         cy="132.6826"
         r="130.2155" />
    </clipPath>
    <clipPath
       clipPathUnits="userSpaceOnUse"
       id="clipPath17">
      <circle
         style="font-variation-settings:'wght' 400;fill:#ff7f2a;stroke-width:0.480288"
         id="circle18"
         cx="132.41249"
         cy="132.6826"
         r="130.2155" />
    </clipPath>
    <rect
       x="37.5"
       y="84.375"
       width="568.75"
       height="625"
       id="rect36-1" />
    <clipPath
       clipPathUnits="userSpaceOnUse"
       id="clipPath36">
      <circle
         style="font-variation-settings:'wght' 400;display:inline;fill:#000000;stroke:#000000;stroke-width:7.55906;stroke-dasharray:none;stroke-opacity:1"
         id="circle36"
         cx="324.65494"
         cy="259.23294"
         r="492.15308" />
    </clipPath>
    <clipPath
       clipPathUnits="userSpaceOnUse"
       id="clipPath37">
      <circle
         style="font-variation-settings:'wght' 400;display:inline;fill:#000000;stroke:#000000;stroke-width:2;stroke-dasharray:none;stroke-opacity:1"
         id="circle37"
         cx="132.41249"
         cy="132.6826"
         r="130.2155" />
    </clipPath>
    <clipPath
       clipPathUnits="userSpaceOnUse"
       id="clipPath38">
      <circle
         style="font-variation-settings:'wght' 400;display:inline;fill:#000000;stroke:#000000;stroke-width:2;stroke-dasharray:none;stroke-opacity:1"
         id="circle38"
         cx="132.41249"
         cy="132.6826"
         r="130.2155"
         transform="rotate(-90)" />
    </clipPath>
    <clipPath
       clipPathUnits="userSpaceOnUse"
       id="clipPath39">
      <circle
         style="font-variation-settings:'wght' 400;display:inline;fill:#000000;stroke:#000000;stroke-width:2;stroke-dasharray:none;stroke-opacity:1"
         id="circle39"
         cx="132.41249"
         cy="132.6826"
         r="130.2155" />
    </clipPath>
    <clipPath
       clipPathUnits="userSpaceOnUse"
       id="clipPath40">
      <circle
         style="font-variation-settings:'wght' 400;display:inline;fill:#000000;stroke:#000000;stroke-width:2;stroke-dasharray:none;stroke-opacity:1"
         id="circle40"
         cx="132.41249"
         cy="132.6826"
         r="130.2155" />
    </clipPath>
  </defs>
  <g
     inkscape:label="Layer 1"
     inkscape:groupmode="layer"
     id="layer1">
    <circle
       style="font-variation-settings:'wght' 400;display:inline;fill:#ff7f2a;stroke:none;stroke-width:0.484936"
       id="circle2"
       cx="132.49651"
       cy="132.59859"
       r="131.47543"
       inkscape:label="circle2" />
    <circle
       style="font-variation-settings:'wght' 400;display:none;fill:#000000;stroke:none;stroke-width:0.480288"
       id="path1"
       cx="132.41249"
       cy="132.6826"
       r="130.2155" />
    <circle
       style="font-variation-settings:'wght' 400;display:none;opacity:1;mix-blend-mode:normal;fill:#ff7f2a;fill-opacity:1;stroke:none;stroke-width:1.2;stroke-dasharray:none;stroke-opacity:1"
       id="path1-0"
       cx="118.17699"
       cy="120.48263"
       r="143.91713"
       clip-path="url(#clipPath40)" />
    <rect
       style="display:none;opacity:1;fill:#000000;fill-opacity:1;stroke-width:1.09701;stroke-dasharray:none"
       id="rect5"
       width="1.8898809"
       height="346.79318"
       x="131.74046"
       y="-50.80872"
       clip-path="url(#clipPath39)" />
    <rect
       style="display:none;fill:#000000;fill-opacity:1;stroke-width:1.09701;stroke-dasharray:none"
       id="rect5-2"
       width="1.8898809"
       height="346.79318"
       x="132.06366"
       y="-307.67419"
       transform="rotate(90)"
       clip-path="url(#clipPath38)" />
    <circle
       style="font-variation-settings:'wght' 400;display:none;fill:none;stroke:#000000;stroke-width:2;stroke-dasharray:none;stroke-opacity:1"
       id="circle23"
       cx="132.41249"
       cy="132.6826"
       r="130.2155"
       clip-path="url(#clipPath37)" />
    <path
       d="m 192.94049,135.53675 v 55.47339 q -2.8101,4.16311 -8.95068,9.36699 -6.14058,5.0998 -16.96466,8.95068 -10.72,3.7468 -27.68466,3.7468 -13.84232,0 -25.49902,-4.78758 Q 102.28885,203.39538 93.754478,194.13247 85.32419,184.76548 80.640697,171.44354 76.06128,158.01752 76.06128,141.05287 v -11.76078 q 0,-16.96466 3.954951,-30.2866 4.05903,-13.32194 11.864853,-22.58485 7.805824,-9.366993 19.150286,-14.154568 11.34447,-4.891648 26.01942,-4.891648 17.38097,0 29.03767,6.036505 11.76077,5.932427 18.31766,16.444271 6.66097,10.51184 8.53437,23.93786 H 172.8535 q -1.35301,-8.22214 -5.41203,-14.98718 -3.95496,-6.76505 -11.34447,-10.82408 -7.38951,-4.163107 -19.04621,-4.163107 -10.51185,0 -18.21359,3.850877 -7.70176,3.85087 -12.69748,11.03223 -4.99572,7.18136 -7.493589,17.38097 -2.393786,10.19961 -2.393786,23.00116 v 11.96894 q 0,13.11378 3.018251,23.41747 3.122334,10.30368 8.846594,17.58912 5.72428,7.18136 13.63418,10.92816 8.01398,3.74679 17.6932,3.74679 10.72,0 17.38097,-1.76932 6.66097,-1.8734 10.40777,-4.37126 3.74679,-2.60195 5.72427,-4.89165 v -33.92932 h -35.07417 v -16.23611 z"
       id="text36-1"
       style="font-size:706.667px;line-height:0;font-family:Roboto;-inkscape-font-specification:'Roboto, Normal';white-space:pre;stroke:#000000;stroke-width:2.28003"
       aria-label="G" />
    <path
       style="display:none;fill:#000000;fill-opacity:1;stroke:none;stroke-width:1.2;stroke-dasharray:none;stroke-opacity:1"
       d="m 206.61553,234.27651 c 0,0 48.89725,-30.96094 47.86553,-100.78219 -0.0181,-1.22634 7.45644,-0.24053 7.45644,-0.24053 0,0 1.01433,47.58026 -48.58712,98.37689 -19.96402,20.44507 -6.73485,2.64583 -6.73485,2.64583 z"
       id="path2"
       sodipodi:nodetypes="cscsc" />
  </g>
</svg>
