<svg xmlns="http://www.w3.org/2000/svg" width="1000" height="1000" viewBox="0 0 264.583 264.583"><defs><clipPath id="d" clipPathUnits="userSpaceOnUse"><circle cx="132.412" cy="132.683" r="130.215" style="font-variation-settings:&quot;wght&quot;400;display:inline;fill:#000;stroke:#000;stroke-width:2;stroke-dasharray:none;stroke-opacity:1"/></clipPath><clipPath id="c" clipPathUnits="userSpaceOnUse"><circle cx="132.412" cy="132.683" r="130.215" style="font-variation-settings:&quot;wght&quot;400;display:inline;fill:#000;stroke:#000;stroke-width:2;stroke-dasharray:none;stroke-opacity:1" transform="rotate(-90)"/></clipPath><clipPath id="b" clipPathUnits="userSpaceOnUse"><circle cx="132.412" cy="132.683" r="130.215" style="font-variation-settings:&quot;wght&quot;400;display:inline;fill:#000;stroke:#000;stroke-width:2;stroke-dasharray:none;stroke-opacity:1"/></clipPath><clipPath id="a" clipPathUnits="userSpaceOnUse"><circle cx="132.412" cy="132.683" r="130.215" style="font-variation-settings:&quot;wght&quot;400;display:inline;fill:#000;stroke:#000;stroke-width:2;stroke-dasharray:none;stroke-opacity:1"/></clipPath></defs><circle cx="132.497" cy="132.599" r="131.475" style="font-variation-settings:&quot;wght&quot;400;display:inline;fill:gray;stroke:none;stroke-width:.484936"/><circle cx="132.412" cy="132.683" r="130.215" style="font-variation-settings:&quot;wght&quot;400;display:inline;fill:#000;stroke:none;stroke-width:.480288"/><circle cx="118.177" cy="120.483" r="143.917" clip-path="url(#a)" style="font-variation-settings:&quot;wght&quot;400;display:inline;opacity:1;mix-blend-mode:normal;fill:#ff7f2a;fill-opacity:1;stroke:none;stroke-width:1.2;stroke-dasharray:none;stroke-opacity:1"/><path d="M131.74-50.809h1.89v346.793h-1.89z" clip-path="url(#b)" style="display:inline;opacity:1;fill:#000;fill-opacity:1;stroke-width:1.09701;stroke-dasharray:none"/><path d="M132.064-307.674h1.89V39.119h-1.89z" clip-path="url(#c)" style="display:inline;fill:#000;fill-opacity:1;stroke-width:1.09701;stroke-dasharray:none" transform="rotate(90)"/><circle cx="132.412" cy="132.683" r="130.215" clip-path="url(#d)" style="font-variation-settings:&quot;wght&quot;400;display:inline;fill:none;stroke:#000;stroke-width:2;stroke-dasharray:none;stroke-opacity:1"/><path d="M467.09 10.879v183.913q-9.316 13.802-29.674 31.054-20.359 16.908-56.244 29.675-35.54 12.422-91.784 12.422-45.892 0-84.538-15.873-38.3-16.217-66.595-46.927-27.949-31.054-43.476-75.221Q79.596 85.41 79.596 29.167V-9.824q0-56.244 13.112-100.41 13.457-44.167 39.336-74.877 25.88-31.054 63.49-46.927 37.61-16.217 86.263-16.217 57.624 0 96.27 20.013 38.99 19.668 60.729 54.518 22.083 34.85 28.294 79.362h-66.595q-4.486-27.26-17.943-49.688-13.112-22.428-37.61-35.885-24.5-13.802-63.145-13.802-34.85 0-60.384 12.767t-42.097 36.575-24.843 57.624q-7.936 33.815-7.936 76.257v39.68q0 43.477 10.006 77.637 10.352 34.16 29.33 58.314 18.977 23.809 45.201 36.23 26.57 12.423 58.66 12.423 35.54 0 57.623-5.866 22.083-6.211 34.505-14.492 12.422-8.627 18.978-16.218V64.707H284.557V10.879z" aria-label="G" style="font-size:706.667px;line-height:0;font-family:Roboto;-inkscape-font-specification:&quot;Roboto, Normal&quot;;white-space:pre;stroke:#000;stroke-width:7.55906" transform="translate(59.07 130.375)scale(.26458)"/><path d="M206.616 234.277s48.897-30.961 47.865-100.783c-.018-1.226 7.457-.24 7.457-.24s1.014 47.58-48.588 98.377c-19.964 20.445-6.734 2.646-6.734 2.646" style="fill:#000;fill-opacity:1;stroke:none;stroke-width:1.2;stroke-dasharray:none;stroke-opacity:1"/></svg>