<?xml version="1.0" encoding="UTF-8" standalone="no"?>
<svg
   xmlns:dc="http://purl.org/dc/elements/1.1/"
   xmlns:cc="http://creativecommons.org/ns#"
   xmlns:rdf="http://www.w3.org/1999/02/22-rdf-syntax-ns#"
   xmlns:svg="http://www.w3.org/2000/svg"
   xmlns="http://www.w3.org/2000/svg"
   xmlns:sodipodi="http://sodipodi.sourceforge.net/DTD/sodipodi-0.dtd"
   xmlns:inkscape="http://www.inkscape.org/namespaces/inkscape"
   inkscape:version="1.0 (4035a4fb49, 2020-05-01)"
   sodipodi:docname="logo-ishares 2020.svg"
   id="svg19"
   version="1.1"
   viewBox="0 0 299.99872 102.08701"
   height="102.08701"
   width="299.99872">
  <metadata
     id="metadata25">
    <rdf:RDF>
      <cc:Work
         rdf:about="">
        <dc:format>image/svg+xml</dc:format>
        <dc:type
           rdf:resource="http://purl.org/dc/dcmitype/StillImage" />
        <dc:title>06C7C594-1F20-4F37-817A-9C5A34C3D086</dc:title>
      </cc:Work>
    </rdf:RDF>
  </metadata>
  <defs
     id="defs23" />
  <sodipodi:namedview
     inkscape:current-layer="svg19"
     inkscape:window-maximized="1"
     inkscape:window-y="-9"
     inkscape:window-x="75"
     inkscape:cy="95.826146"
     inkscape:cx="77.664939"
     inkscape:zoom="5.1052107"
     fit-margin-bottom="0"
     fit-margin-right="0"
     fit-margin-left="0"
     fit-margin-top="0"
     showgrid="false"
     id="namedview21"
     inkscape:window-height="1411"
     inkscape:window-width="2476"
     inkscape:pageshadow="2"
     inkscape:pageopacity="0"
     guidetolerance="10"
     gridtolerance="10"
     objecttolerance="10"
     borderopacity="1"
     bordercolor="#666666"
     pagecolor="#ffffff" />
  <!-- Generator: sketchtool 55.2 (78181) - https://sketchapp.com -->
  <title
     id="title10">06C7C594-1F20-4F37-817A-9C5A34C3D086</title>
  <desc
     id="desc12">Created with sketchtool.</desc>
  <path
     inkscape:label="Shape"
     d="M 0.83209413,12.081601 V 1.0597895 H 14.49946 V 12.081601 Z m 0,50.022065 V 16.931198 H 14.49946 v 45.15551 z M 243.98349,43.103759 h -30.68524 c 0.56396,4.798727 4.05545,8.478316 10.78132,8.478316 4.1133,0.111601 8.08301,-1.549852 10.93886,-4.578291 l 8.1772,8.546143 c -4.19641,4.832641 -10.84765,7.774616 -19.0746,7.774616 -15.66605,0 -24.87992,-9.232886 -24.87992,-24.112329 0,-13.743352 8.89043,-23.739287 22.97246,-23.739287 14.08204,0 22.26753,8.775058 22.26753,21.857099 0.0436,1.937471 -0.12322,3.873905 -0.49761,5.773733 z m -13.11171,-8.647881 c -0.30685,-4.688509 -3.35879,-8.028966 -8.60846,-8.028966 -5.24965,0 -8.29329,3.306542 -8.94019,8.028966 z m 36.37444,28.826273 c -6.75076,0 -15.00259,-1.805879 -21.09816,-7.740701 l 7.79568,-8.563099 c 3.59685,3.452507 8.33561,5.390297 13.2693,5.426121 4.76035,0 6.83369,-1.263268 6.83369,-3.196325 0,-1.466749 -1.03667,-2.297623 -3.64076,-3.094586 -2.27237,-0.695222 -5.85509,-1.30566 -8.87385,-2.212839 -6.56,-1.958491 -13.07854,-4.747857 -13.07854,-14.218137 -0.0172,-8.766579 6.98297,-14.141831 18.66824,-14.141831 6.46876,0 13.76687,1.348052 19.90393,6.909828 l -7.87866,8.35114 c -3.44171,-3.391324 -8.24354,-4.612203 -12.13308,-4.612203 -3.51637,0 -5.46529,1.263269 -5.46529,3.01828 0,1.458272 1.03666,2.31458 3.69051,3.196324 2.30553,0.754572 6.12046,1.492185 9.12264,2.365452 6.29461,1.81436 12.81326,4.552856 12.81326,13.565306 0.0331,10.080717 -8.3017,14.955749 -19.92891,14.955749 z M 56.795315,18.703166 c -3.46423,-4.122395 -8.569669,-6.417155 -13.882992,-6.240041 -5.763847,0 -8.774317,2.119579 -8.774317,5.13786 0,4.086548 4.553025,5.502427 13.269289,8.00353 9.570473,2.755454 20.442995,5.866994 20.442995,18.762514 0,12.89552 -10.482738,18.855775 -23.743732,18.855775 -11.187668,0 -20.318597,-3.264153 -26.190256,-11.369421 l 10.200766,-8.647884 c 3.889559,5.349817 9.802686,7.528746 15.823624,7.528746 7.157121,0 9.769514,-2.543497 9.769514,-5.298948 0,-4.001766 -4.146653,-4.976772 -14.189846,-7.833965 C 29.186903,34.659356 20.213547,30.589765 20.213547,18.101205 20.213547,7.1387421 28.996156,0 43.360161,0 52.482796,0 60.85074,2.4756683 66.888266,10.17398 Z M 194.06609,16.06641 c 2.61066,-0.104837 5.13319,0.975098 6.89174,2.950453 l -5.48188,11.784859 c -1.36169,-1.043918 -3.02545,-1.592971 -4.72718,-1.560008 -3.48319,0 -6.46878,3.069149 -6.46878,8.647881 v 24.197113 h -13.78347 v -45.15551 h 13.55126 v 6.333301 c 2.42164,-4.332418 5.51505,-7.198089 10.01831,-7.198089 z m -79.61573,15.583145 v 30.437153 h -13.60931 v -25.51973 c 0,-4.900466 -2.57092,-7.901792 -7.115649,-7.901792 -4.544732,0 -7.638134,2.891108 -7.638134,8.071357 V 62.086708 H 72.453074 V 1.0428329 H 86.087267 V 23.001672 c 3.190243,-4.435361 8.274146,-7.029287 13.659078,-6.969176 8.318175,0 14.704015,5.561776 14.704015,15.617059 z m 51.59266,19.966435 v 9.572017 c -2.55169,0.998686 -5.26249,1.504645 -7.99475,1.492184 -3.75688,0 -7.53033,-1.203919 -9.2968,-5.655035 -2.95242,3.391325 -8.46747,5.994169 -14.72062,5.994169 -9.12263,0 -14.986,-4.764814 -14.986,-13.836612 0,-8.876798 7.03272,-14.184223 17.89696,-14.184223 3.60679,0.006 7.19941,0.461576 10.69836,1.356531 v -1.475227 c 0,-5.086991 -2.86948,-8.088315 -8.81578,-8.088315 -4.00883,0.123363 -7.84684,1.687401 -10.83935,4.417205 l -7.46398,-8.647885 c 4.45351,-4.120461 11.68527,-7.189611 20.02833,-7.189611 12.85463,0 20.61716,6.324824 20.61716,18.169031 v 15.820538 c 0,1.695663 0.82933,2.543495 2.62897,2.543495 0.76599,-0.003 1.52888,-0.09988 2.27238,-0.288262 z m -18.39456,-7.740704 c -2.4973,-0.632775 -5.05724,-0.971285 -7.62983,-1.00892 -4.69401,0 -7.01614,2.356972 -7.01614,5.587211 0,3.060671 2.05674,5.273513 6.26974,5.273513 4.46179,0 8.37623,-2.730018 8.37623,-6.867436 z M 299.98817,58.1019 c 0.0837,1.231766 -0.36222,2.439592 -1.22103,3.307777 -0.8588,0.868185 -2.04519,1.310439 -3.24905,1.211166 -2.83631,0 -4.47011,-1.814359 -4.47011,-4.518943 0,-2.704582 1.65868,-4.527419 4.47011,-4.527419 1.20541,-0.09958 2.39328,0.343781 3.25241,1.213911 0.85911,0.870134 1.30384,2.080324 1.21767,3.313508 z m -0.72981,0 c 0.13375,-1.448938 -0.54684,-2.850295 -1.75679,-3.617155 -1.20998,-0.766863 -2.74041,-0.766863 -3.95038,0 -1.20995,0.76686 -1.89059,2.168217 -1.75679,3.617155 0,2.543497 1.53425,3.916982 3.75687,3.916982 2.22259,0 3.70709,-1.356531 3.70709,-3.916982 z m -2.83631,0.525657 0.82933,1.602402 h -0.89567 l -0.77956,-1.475228 h -0.97032 v 1.475228 h -0.82933 v -4.451116 h 1.84111 c 1.06983,0 1.65865,0.559568 1.65865,1.424357 0.066,0.618287 -0.2853,1.203963 -0.85421,1.424357 z m 0.0415,-1.373487 c 0,-0.483264 -0.25711,-0.771527 -0.82935,-0.771527 h -1.03665 v 1.568488 h 0.92056 c 0.61369,0 0.94544,-0.195011 0.94544,-0.796961 z M 54.760691,97.474463 V 79.161302 H 50.680385 V 97.474463 Z M 122.69115,83.442852 c -3.94762,0 -7.29812,2.76393 -7.29812,7.181133 0,4.417202 3.31733,7.206568 7.29812,7.206568 3.98078,0 7.2981,-2.789366 7.2981,-7.206568 0,-4.417203 -3.37538,-7.181133 -7.2981,-7.181133 z m 0,10.801374 c -0.91845,0.0084 -1.79767,-0.379946 -2.42138,-1.069218 -0.62371,-0.689274 -0.93398,-1.615583 -0.85448,-2.551023 -0.20667,-1.323637 0.36867,-2.647525 1.468,-3.378005 1.09933,-0.73048 2.51638,-0.73048 3.61571,0 1.09933,0.73048 1.67466,2.054368 1.468,3.378005 0.0795,0.93544 -0.23077,1.861749 -0.85448,2.551023 -0.6237,0.689272 -1.50293,1.077521 -2.42137,1.069218 z M 46.168826,87.860053 c 1.475644,-0.667844 2.416578,-2.17419 2.388473,-3.82372 0,-2.670669 -1.890872,-4.875031 -6.112167,-4.875031 h -8.119145 v 18.313161 h 8.467465 c 4.246171,0 6.286323,-2.161969 6.286323,-5.273511 0.08193,-1.947749 -1.104319,-3.716732 -2.910949,-4.340899 z m -7.588374,-5.146337 h 3.375376 c 1.360104,0 2.264071,0.618915 2.264071,1.856752 0,1.237834 -0.812743,1.966967 -2.297244,1.966967 h -3.375374 z m 3.673934,11.216812 h -3.673934 v -4.001766 h 3.673934 c 1.467917,0 2.347005,0.763048 2.347005,1.992406 0,1.229355 -0.837621,2.00936 -2.380178,2.00936 z M 84.55024,87.147874 c -1.127889,-2.390885 -3.217802,-3.72198 -6.37755,-3.72198 -3.740279,0 -7.074191,2.399363 -7.074191,7.147219 0,4.747857 2.935832,7.20657 7.016135,7.20657 2.869486,0 5.282838,-1.170007 6.410727,-3.696546 l -3.317324,-1.695662 c -0.544638,1.163403 -1.716952,1.881149 -2.977293,1.822837 -1.882582,0 -3.126578,-1.381966 -3.126578,-3.603284 0,-2.221319 1.40157,-3.569371 3.093403,-3.569371 1.275838,-0.04709 2.444837,0.724794 2.927536,1.933055 z m 60.14305,0 c -1.1279,-2.390885 -3.21781,-3.72198 -6.37756,-3.72198 -3.74028,0 -7.07419,2.399363 -7.07419,7.147219 0,4.747857 2.93583,7.20657 7.01613,7.20657 2.86949,0 5.28284,-1.170007 6.41074,-3.696546 l -3.31733,-1.695662 c -0.54464,1.163403 -1.71695,1.881149 -2.9773,1.822837 -1.88258,0 -3.12657,-1.381966 -3.12657,-3.603284 0,-2.221319 1.40157,-3.569371 3.0934,-3.569371 1.27584,-0.04709 2.44483,0.724794 2.92754,1.933055 z m -33.24787,3.306543 c 2.1003,-0.916394 3.44123,-3.049939 3.38367,-5.38373 0,-3.950894 -2.86949,-5.934821 -6.96638,-5.934821 h -7.58837 v 18.313163 h 4.213 V 91.29377 h 2.6124 l 3.39195,6.155259 h 4.88476 z m -3.82321,-2.8148 h -3.13487 v -4.841119 h 3.13487 c 1.98209,0 2.88612,0.847832 2.88612,2.433276 0.008,1.305661 -0.9289,2.450235 -2.87783,2.450235 z m -37.842344,6.782654 c -0.219163,0.04896 -0.447916,-0.01441 -0.613012,-0.169594 -0.1651,-0.155273 -0.245818,-0.383058 -0.21632,-0.610405 v -4.747857 c 0,-3.543937 -2.330419,-5.443082 -6.186805,-5.443082 -2.184572,-0.0015 -4.298355,0.7919 -5.962885,2.238278 l 2.255777,2.543495 c 0.89759,-0.818334 2.048813,-1.286695 3.250977,-1.322618 1.783062,0 2.645563,0.90718 2.645563,2.424798 v 0.440874 c -1.049605,-0.268927 -2.127442,-0.405596 -3.209508,-0.406959 -3.25927,0 -5.365768,1.593923 -5.365768,4.239157 0,2.645235 1.758181,4.154374 4.494971,4.154374 1.65033,0.03998 3.244702,-0.612604 4.412038,-1.805879 0.464811,1.132647 1.599649,1.821168 2.794843,1.695661 0.818986,2.71e-4 1.631171,-0.152004 2.396765,-0.44935 v -2.874149 c -0.222287,0.07864 -0.453713,0.127104 -0.688343,0.144134 z m -4.834999,-1.526098 c 0,1.237833 -1.169355,2.060232 -2.487988,2.060232 -1.318638,0 -1.87429,-0.661309 -1.87429,-1.585446 0,-0.924136 0.696639,-1.695663 2.098207,-1.695663 0.771385,0.01183 1.539083,0.111406 2.28895,0.296741 z m 94.328043,4.527421 -4.81012,-8.520706 4.49498,-4.968295 h -4.53645 l -4.74377,5.392208 V 79.152823 h -3.98907 v 18.313162 h 4.04713 v -3.298064 l 1.94064,-2.119579 3.03534,5.409164 z m -60.093285,0 -4.810114,-8.520706 4.511559,-5.019165 h -4.611076 l -4.685716,5.392208 V 79.101953 h -4.038841 v 18.313162 h 4.038841 v -3.247194 l 1.932339,-2.119579 3.03535,5.409164 z M 23.710557,83.858289 21.288912,92.802912 18.369668,83.926114 h -4.378863 l 5.390647,13.684004 c -0.318581,0.766341 -1.100923,1.2184 -1.90746,1.102179 -0.566734,-0.0071 -1.119511,-0.180689 -1.592314,-0.500219 l -1.47621,2.865672 c 0.935153,0.66888 2.051677,1.02169 3.192923,1.00892 3.027056,0 4.81841,-1.69567 5.89654,-4.917427 L 27.923555,83.926114 Z M 8.0196245,83.281762 C 6.5782117,83.260945 5.1867842,83.821403 4.1466504,84.841773 V 79.161302 H 0 v 18.313161 h 4.0139584 v -1.229355 c 1.0168027,1.08065 2.441178,1.65878 3.9061456,1.585445 3.499778,0 6.170221,-2.823278 6.170221,-7.291351 0,-4.468074 -2.562631,-7.25744 -6.0707005,-7.25744 z m -1.07813,10.886159 C 5.8609949,94.205611 4.8259623,93.72208 4.1466504,92.86226 v -4.48503 c 0.6272835,-0.893055 1.6284471,-1.43306 2.7036186,-1.45827 1.7913523,0 3.1348699,1.254792 3.1348699,3.62872 0,2.373929 -1.1942353,3.620241 -3.0436444,3.620241 z"
     id="Shape"
     style="fill:#000000;fill-opacity:1;fill-rule:evenodd;stroke:none;stroke-width:2.1503" />
</svg>
