<svg version="1.1" id="Layer_1" xmlns:x="ns_extend;" xmlns:i="ns_ai;" xmlns:graph="ns_graphs;" xmlns="http://www.w3.org/2000/svg" xmlns:xlink="http://www.w3.org/1999/xlink" x="0px" y="0px" viewBox="0 0 350.1 76" style="enable-background:new 0 0 350.1 76;" xml:space="preserve">
 <style type="text/css">
  .st0{clip-path:url(#SVGID_2_);fill:#D6002A;}
	.st1{clip-path:url(#SVGID_4_);fill:#D6002A;}
	.st2{clip-path:url(#SVGID_6_);fill:#D6002A;}
	.st3{clip-path:url(#SVGID_8_);fill:#D6002A;}
	.st4{clip-path:url(#SVGID_10_);fill:#D6002A;}
	.st5{clip-path:url(#SVGID_12_);fill:#D6002A;}
	.st6{clip-path:url(#SVGID_14_);fill:#D6002A;}
	.st7{clip-path:url(#SVGID_16_);fill:#D6002A;}
	.st8{clip-path:url(#SVGID_18_);fill:#D6002A;}
	.st9{clip-path:url(#SVGID_20_);fill:#FFFFFF;}
 </style>
 <metadata>
  <sfw xmlns="ns_sfw;">
   <slices>
   </slices>
   <sliceSourceBounds bottomLeftOrigin="true" height="76" width="350.2" x="-0.1" y="0">
   </sliceSourceBounds>
  </sfw>
 </metadata>
 <g>
  <g>
   <g>
    <defs>
     <rect id="SVGID_1_" width="350.1" height="76">
     </rect>
    </defs>
    <clipPath id="SVGID_2_">
     <use href="#SVGID_1_" style="overflow:visible;">
     </use>
    </clipPath>
    <path class="st0" d="M39.9,59.9c0,2.3-0.4,4.3-1.2,6s-1.8,3.1-3,4.3c-1.9,1.9-4.2,3.3-7,4.1c-2.7,0.8-5.6,1.2-8.7,1.2
				c-2.7,0-5.3-0.4-7.9-1.2c-2.6-0.8-4.9-2.1-7-4c-1.5-1.4-2.7-3-3.7-5s-1.5-4.2-1.5-6.6h9.3c0,1.2,0.2,2.3,0.7,3.4
				c0.5,1.1,1.1,2,1.9,2.7c1.1,1.1,2.4,1.8,3.9,2.1c1.5,0.3,3,0.5,4.5,0.5c1.7,0,3.4-0.2,4.9-0.6s2.8-1.1,3.7-2.1
				c0.6-0.6,1-1.2,1.4-1.9s0.6-1.6,0.6-2.8c0-1.8-0.6-3.2-1.8-4.1c-1.2-0.9-2.6-1.5-4.1-1.8c-1.7-0.3-3.5-0.6-5.5-0.7
				c-2-0.1-3.8-0.4-5.5-0.6c-1.7-0.3-3.4-0.8-4.9-1.5s-2.9-1.6-4-2.8c-1.1-1.1-2.1-2.5-2.7-4.1c-0.7-1.6-1-3.4-1-5.5
				c0-2,0.4-3.8,1.2-5.4s1.8-3.1,3.2-4.4c1.6-1.6,3.7-2.9,6.3-3.9c2.6-0.9,5.3-1.4,8.3-1.4c2.7,0,5.2,0.4,7.7,1.2
				c2.5,0.8,4.5,2,6.2,3.6c1.5,1.4,2.7,3,3.6,4.8c0.9,1.8,1.4,3.7,1.4,5.8h-9.3c0-0.9-0.3-1.8-0.7-2.6c-0.4-0.9-0.9-1.6-1.5-2.3
				c-0.8-0.8-1.9-1.5-3.4-2s-2.9-0.7-4.2-0.7c-1.4,0-2.8,0.2-4.3,0.6c-1.5,0.4-2.7,1.1-3.8,2.2c-0.5,0.6-0.9,1.2-1.2,1.8
				c-0.3,0.7-0.5,1.4-0.5,2.4c0,1.6,0.5,2.9,1.4,3.8c0.9,0.9,2.1,1.4,3.6,1.6c1.6,0.2,3.4,0.4,5.4,0.6c2,0.2,3.8,0.4,5.4,0.6
				c1.9,0.3,3.6,0.8,5.3,1.5s3.1,1.7,4.3,2.9s2.2,2.6,2.9,4.3C39.5,55.9,39.9,57.8,39.9,59.9">
    </path>
   </g>
  </g>
  <g>
   <g>
    <defs>
     <rect id="SVGID_3_" width="350.1" height="76">
     </rect>
    </defs>
    <clipPath id="SVGID_4_">
     <use xlink:href="#SVGID_3_" style="overflow:visible;">
     </use>
    </clipPath>
    <path class="st1" d="M79,74.7l-3.5-3.9c-2,1.8-4.2,3.1-6.6,3.9C66.5,75.6,64,76,61.4,76c-2.2,0-4.3-0.3-6.3-1.1
				c-2-0.7-3.8-1.7-5.3-3s-2.7-2.9-3.6-4.7c-0.9-1.9-1.3-4-1.3-6.3c0-3.1,0.8-5.7,2.4-7.9c1.6-2.2,3.8-4.1,6.4-5.7
				c-0.8-0.8-1.5-1.7-2.2-2.5s-1.2-1.6-1.7-2.5c-0.5-0.8-0.8-1.7-1.1-2.7c-0.3-0.9-0.4-2-0.4-3.2c0-2,0.4-3.7,1.1-5.3
				c0.7-1.5,1.7-2.9,2.9-4s2.7-1.9,4.3-2.5c1.7-0.6,3.4-0.8,5.3-0.8c1.8,0,3.6,0.3,5.2,0.8c1.7,0.5,3.1,1.3,4.4,2.4s2.3,2.3,3,3.9
				c0.7,1.5,1.1,3.3,1.1,5.2c0,1.6-0.2,3.1-0.7,4.4c-0.5,1.3-1.1,2.5-2,3.5c-0.8,1-1.8,2-3,2.9c-1.1,0.9-2.4,1.7-3.8,2.5l8.6,9.4
				c0.4-0.8,0.7-1.7,0.9-2.8c0.2-1.1,0.3-2.2,0.4-3.3s0.1-2.2,0.1-3.3v-2.8h12.8v6.9h-5.7c-0.1,2-0.4,3.9-0.8,5.8
				c-0.4,1.9-1.2,3.7-2.2,5.3l9.2,10C89.7,74.7,79,74.7,79,74.7z M58.9,52.7c-0.8,0.5-1.6,1-2.3,1.5s-1.3,1-1.9,1.6
				c-0.5,0.6-1,1.3-1.3,2.1S53,59.5,53,60.6c0,1.3,0.2,2.4,0.7,3.4s1.1,1.8,2,2.5c0.8,0.7,1.8,1.1,2.8,1.5c1.1,0.3,2.2,0.5,3.4,0.5
				c1.5,0,3-0.2,4.5-0.6s2.8-1.2,3.9-2.5L58.9,52.7z M67.6,36.5c0-1.7-0.5-3.1-1.6-4c-1-0.9-2.4-1.4-4-1.4c-1.4,0-2.7,0.4-3.9,1.3
				c-1.1,0.9-1.7,2.2-1.7,3.9c0,0.8,0.2,1.5,0.5,2.2s0.7,1.4,1.1,2c0.4,0.6,0.9,1.2,1.5,1.8s1.1,1.1,1.6,1.6
				c0.7-0.4,1.5-0.9,2.3-1.3c0.8-0.4,1.5-0.9,2.1-1.5s1.1-1.2,1.5-2C67.4,38.4,67.6,37.6,67.6,36.5">
    </path>
   </g>
  </g>
  <g>
   <g>
    <defs>
     <rect id="SVGID_5_" width="350.1" height="76">
     </rect>
    </defs>
    <clipPath id="SVGID_6_">
     <use xlink:href="#SVGID_5_" style="overflow:visible;">
     </use>
    </clipPath>
    <path class="st2" d="M133.3,40.9c0,2.4-0.4,4.6-1.1,6.5c-0.7,2-1.9,3.6-3.3,5c-1.5,1.4-3.3,2.5-5.5,3.3s-4.7,1.2-7.6,1.2h-10.5
				v17.8h-9V25h19.5c2.8,0,5.4,0.4,7.6,1.2c2.2,0.8,4,1.8,5.5,3.2c1.5,1.4,2.6,3,3.3,5C132.9,36.3,133.3,38.5,133.3,40.9
				 M124.2,40.9c0-2.4-0.7-4.3-2.1-5.8s-3.6-2.2-6.7-2.2h-10.2V49h10.2c3,0,5.3-0.7,6.7-2.2C123.5,45.3,124.2,43.3,124.2,40.9">
    </path>
   </g>
  </g>
  <g>
   <g>
    <defs>
     <rect id="SVGID_7_" width="350.1" height="76">
     </rect>
    </defs>
    <clipPath id="SVGID_8_">
     <use xlink:href="#SVGID_7_" style="overflow:visible;">
     </use>
    </clipPath>
    <path class="st3" d="M186.6,74.7l-1.1-5.5c-0.4,0.7-0.9,1.4-1.7,2.2c-0.8,0.8-1.7,1.5-2.8,2.1s-2.3,1.1-3.7,1.5s-2.8,0.6-4.3,0.6
				c-2.9,0-5.6-0.4-8.1-1.2c-2.5-0.8-4.7-2.2-6.7-4.3c-1.3-1.4-2.4-2.8-3.2-4.3s-1.5-3.1-2-4.8s-0.8-3.4-1-5.3
				c-0.2-1.8-0.3-3.8-0.3-5.9c0-2,0.1-3.9,0.2-5.8c0.2-1.8,0.5-3.6,0.9-5.2c0.5-1.6,1.1-3.2,2-4.7c0.8-1.5,1.9-2.9,3.3-4.3
				c1.9-1.9,4.2-3.4,6.8-4.3c2.6-1,5.3-1.5,8-1.5c3.1,0,5.9,0.5,8.4,1.5s4.6,2.4,6.3,4.1c1.2,1.3,2.2,2.7,3.1,4.3
				c0.8,1.6,1.3,3.5,1.5,5.7h-9.3c-0.1-1-0.3-1.8-0.8-2.5c-0.4-0.7-0.9-1.4-1.4-2c-1.7-2-4.4-3-7.9-3c-1.4,0-2.9,0.3-4.4,0.9
				c-1.5,0.6-2.7,1.4-3.7,2.5c-0.8,0.9-1.5,1.9-2,3.1c-0.5,1.2-0.9,2.4-1.2,3.7s-0.5,2.6-0.5,3.9c-0.1,1.3-0.1,2.5-0.1,3.6
				s0,2.4,0.1,3.7s0.3,2.7,0.6,4s0.7,2.6,1.2,3.8s1.2,2.2,2,3.1c1,1.1,2.2,1.9,3.7,2.4s2.9,0.8,4.4,0.8c1.6,0,3.1-0.3,4.3-0.8
				s2.3-1.2,3.1-2.1c1.4-1.4,2.2-2.9,2.6-4.5c0.4-1.6,0.6-3.3,0.6-5.2h-11.8v-7.5h20.6v27.2C192.4,74.7,186.6,74.7,186.6,74.7z">
    </path>
   </g>
  </g>
  <g>
   <g>
    <defs>
     <rect id="SVGID_9_" width="350.1" height="76">
     </rect>
    </defs>
    <clipPath id="SVGID_10_">
     <use xlink:href="#SVGID_9_" style="overflow:visible;">
     </use>
    </clipPath>
    <path class="st4" d="M214.3,74.6c-0.9,0.2-1.5,0.3-1.9,0.4s-1,0.1-1.9,0.1c-3,0-5.4-0.8-7.2-2.3s-2.7-4-2.7-7.5V24h8.8v39.8
				c0,1.1,0.2,1.9,0.6,2.6c0.4,0.6,1.4,0.9,2.9,0.9c0.4,0,0.7,0,0.8,0s0.4,0,0.6,0C214.3,67.2,214.3,74.6,214.3,74.6z">
    </path>
   </g>
  </g>
  <g>
   <g>
    <defs>
     <rect id="SVGID_11_" width="350.1" height="76">
     </rect>
    </defs>
    <clipPath id="SVGID_12_">
     <use xlink:href="#SVGID_11_" style="overflow:visible;">
     </use>
    </clipPath>
    <path class="st5" d="M251.5,56.4c0,3.1-0.4,5.7-1.1,7.7c-0.7,2.1-1.8,4-3.2,5.7c-1.3,1.5-3,2.9-5.2,4s-4.7,1.7-7.5,1.7
				s-5.3-0.6-7.5-1.7s-4-2.5-5.2-4c-1.4-1.7-2.4-3.6-3.2-5.7c-0.7-2.1-1.1-4.7-1.1-7.7s0.4-5.7,1.1-7.7c0.7-2.1,1.8-4,3.2-5.7
				c1.3-1.5,3-2.9,5.2-4s4.7-1.7,7.5-1.7s5.3,0.6,7.5,1.7c2.2,1.1,4,2.5,5.2,4c1.4,1.7,2.4,3.6,3.2,5.7S251.5,53.4,251.5,56.4
				 M242.6,56.4c0-1.7-0.2-3.4-0.5-5s-1-3-2.1-4.2c-0.6-0.7-1.4-1.2-2.3-1.6c-0.9-0.4-2-0.7-3.2-0.7s-2.3,0.2-3.2,0.7
				c-0.9,0.4-1.7,1-2.3,1.6c-1.1,1.2-1.8,2.6-2.1,4.2c-0.3,1.6-0.5,3.3-0.5,5s0.2,3.4,0.5,5s1,3,2.1,4.2c0.6,0.7,1.4,1.2,2.3,1.6
				c0.9,0.4,2,0.7,3.2,0.7s2.3-0.2,3.2-0.7c0.9-0.4,1.7-1,2.3-1.6c1.1-1.2,1.8-2.6,2.1-4.2C242.5,59.8,242.6,58.2,242.6,56.4">
    </path>
   </g>
  </g>
  <g>
   <g>
    <defs>
     <rect id="SVGID_13_" width="350.1" height="76">
     </rect>
    </defs>
    <clipPath id="SVGID_14_">
     <use xlink:href="#SVGID_13_" style="overflow:visible;">
     </use>
    </clipPath>
    <path class="st6" d="M292,56.5c0,3.5-0.5,6.5-1.6,9.2s-2.7,4.9-4.9,6.7c-1.1,0.9-2.4,1.7-3.9,2.2c-1.5,0.6-3.1,0.8-4.9,0.8
				c-2,0-3.9-0.4-5.8-1.2c-1.9-0.8-3.3-2-4.4-3.7l-0.6,4h-7.6V24.1h8.8v16.8c0.8-1,2.1-1.9,3.8-2.6c1.7-0.7,3.6-1,5.8-1
				c1.9,0,3.5,0.3,5,0.8s2.8,1.2,3.9,2.2C289.8,43.8,292,49.3,292,56.5 M283.1,56.4c0-1.6-0.2-3.2-0.5-4.7s-0.9-2.9-1.9-4.1
				c-0.7-0.8-1.5-1.5-2.4-2c-1-0.6-2.1-0.8-3.5-0.8c-1.7,0-3.1,0.4-4.2,1.1c-1.1,0.7-1.9,1.7-2.5,2.8s-1,2.4-1.2,3.8
				c-0.2,1.4-0.3,2.7-0.3,4c0,1.8,0.2,3.6,0.6,5.4c0.4,1.8,1.3,3.4,2.5,4.5c0.6,0.6,1.3,1,2.2,1.3c0.8,0.3,1.8,0.5,2.9,0.5
				c1.4,0,2.5-0.3,3.5-0.8c1-0.6,1.8-1.2,2.4-2c0.9-1.2,1.6-2.6,1.9-4.2C282.9,59.5,283.1,58,283.1,56.4">
    </path>
   </g>
  </g>
  <g>
   <g>
    <defs>
     <rect id="SVGID_15_" width="350.1" height="76">
     </rect>
    </defs>
    <clipPath id="SVGID_16_">
     <use xlink:href="#SVGID_15_" style="overflow:visible;">
     </use>
    </clipPath>
    <path class="st7" d="M330.9,74.2c-0.7,0.3-1.4,0.6-1.9,0.7c-0.5,0.2-1.3,0.2-2.4,0.2c-1.9,0-3.4-0.5-4.4-1.5s-1.6-2.2-1.8-3.6
				c-0.8,1.5-2.2,2.8-4.2,3.9s-4.3,1.6-6.9,1.6c-2.2,0-4.1-0.3-5.8-0.9c-1.6-0.6-3-1.5-4.1-2.5c-1.1-1.1-1.9-2.3-2.5-3.6
				c-0.6-1.4-0.8-2.8-0.8-4.3c0-1.7,0.3-3.3,0.9-4.6c0.6-1.4,1.5-2.5,2.6-3.5s2.4-1.7,3.9-2.3c1.5-0.5,3.1-0.9,4.8-1L319,52v-2.2
				c0-1.7-0.4-3.1-1.2-4.2c-0.8-1.1-2.5-1.6-4.9-1.6c-2.1,0-3.7,0.4-4.8,1.3c-1.1,0.9-1.8,2.2-1.9,3.9h-8.5c0.1-2.1,0.6-3.8,1.4-5.3
				s1.9-2.7,3.3-3.7s2.9-1.7,4.7-2.1c1.8-0.5,3.7-0.7,5.7-0.7c3.1,0,5.9,0.5,8.4,1.6s4.2,3,5.3,5.8c0.5,1.2,0.8,2.4,0.9,3.6
				c0.1,1.3,0.2,2.5,0.2,3.7v13.5c0,0.8,0.2,1.4,0.5,1.8c0.3,0.3,0.8,0.5,1.6,0.5c0.4,0,0.6,0,0.8-0.1c0.1,0,0.3,0,0.3-0.1
				L330.9,74.2L330.9,74.2z M319.2,58.5l-9.3,0.7c-1.4,0.1-2.6,0.5-3.6,1.3c-1.1,0.8-1.6,1.9-1.6,3.4c0,1.4,0.5,2.5,1.6,3.3
				s2.3,1.2,3.6,1.2c2.8,0,5-0.7,6.7-2.1s2.6-3.5,2.6-6.2C319.2,60.2,319.2,58.5,319.2,58.5z">
    </path>
   </g>
  </g>
  <g>
   <g>
    <defs>
     <rect id="SVGID_17_" width="350.1" height="76">
     </rect>
    </defs>
    <clipPath id="SVGID_18_">
     <use xlink:href="#SVGID_17_" style="overflow:visible;">
     </use>
    </clipPath>
    <path class="st8" d="M350.1,74.6c-0.9,0.2-1.5,0.3-1.9,0.4s-1,0.1-1.9,0.1c-3,0-5.4-0.8-7.2-2.3s-2.7-4-2.7-7.5V24h8.8v39.8
				c0,1.1,0.2,1.9,0.6,2.6c0.4,0.6,1.4,0.9,2.9,0.9c0.4,0,0.7,0,0.8,0c0.2,0,0.4,0,0.6,0L350.1,74.6L350.1,74.6z">
    </path>
   </g>
  </g>
  <g>
   <g>
    <defs>
     <rect id="SVGID_19_" width="350.1" height="76">
     </rect>
    </defs>
    <clipPath id="SVGID_20_">
     <use xlink:href="#SVGID_19_" style="overflow:visible;">
     </use>
    </clipPath>
    <rect class="st9" width="350.1" height="8.1">
    </rect>
   </g>
  </g>
 </g>
</svg>