<?xml version="1.0"?>
<svg xmlns="http://www.w3.org/2000/svg" width="516.25842" height="259.804047" viewBox="0 0 45.531124 22.913272">
<g transform="translate(196.634612,-161.567165)">
 <path d="m -167.26177,161.69946 v 1.67076 h 14.35029 v 19.30329 h -41.91599 v -11.51008 h -1.67464 v 13.18472 h 45.26633 v -22.64869 z" style="fill:#a3a5a8;fill-rule:nonzero;stroke:none" />
 <path d="m -171.84245,178.95213 h 1.67217 v -2.36396 c 0,-0.92181 0.45402,-1.45027 1.24495,-1.45027 0.19579,0 0.35983,0.0169 0.51682,0.054 l 0.0159,0.004 v -1.65135 l -0.009,-0.003 c -0.11395,-0.0342 -0.27728,-0.0543 -0.43709,-0.0543 -0.38065,0 -0.90346,0.1337 -1.22943,0.50941 l -0.15593,0.17956 v -0.64452 h -1.61819 z m 8.10507,-2.70475 c 0,-0.68968 -0.55774,-1.23754 -1.23755,-1.23754 -0.67945,0 -1.23754,0.54786 -1.23754,1.23754 0,0.68968 0.55809,1.23755 1.23754,1.23755 0.67981,0 1.23755,-0.54787 1.23755,-1.23755 m -4.17901,0.0102 c 0,-1.57233 1.21709,-2.85044 2.93159,-2.85044 1.68381,0 2.94146,1.27811 2.94146,2.85044 0,1.57198 -1.21709,2.84022 -2.94146,2.84022 -1.7145,0 -2.93159,-1.26824 -2.93159,-2.84022 m 7.239,4.73957 0.77576,-2.13889 -2.1724,-5.32765 h 1.76671 l 1.20438,3.12067 1.12219,-3.12067 h 1.71732 l -2.7171,7.46654 z m -14.33442,-8.15975 h -2.0394 v -1.67216 h 5.74463 v 1.67216 h -2.03059 v 6.1147 h -1.67464 z m -10.70574,3.40995 c 0,-0.68968 -0.5581,-1.23754 -1.23755,-1.23754 -0.6798,0 -1.23754,0.54786 -1.23754,1.23754 0,0.68968 0.55774,1.23755 1.23754,1.23755 0.67945,0 1.23755,-0.54787 1.23755,-1.23755 m -4.17936,0.0102 c 0,-1.57233 1.21744,-2.85044 2.93158,-2.85044 1.68381,0 2.94146,1.27811 2.94146,2.85044 0,1.57198 -1.21708,2.84022 -2.94146,2.84022 -1.71414,0 -2.93158,-1.26824 -2.93158,-2.84022 m 6.1662,-2.72944 h 0.81915 v -0.38135 c -0.005,-2.51143 2.7171,-2.09268 2.79365,-1.98332 v 1.36314 c -0.60431,-0.10831 -1.08338,-0.007 -1.11866,0.61983 v 0.3817 h 1.09714 v 1.47038 h -1.09784 l -0.001,3.95287 h -1.67287 v -3.95287 h -0.81915 z m 8.94433,-6.7631 c 0,-1.63513 -1.1998,-2.82187 -2.85256,-2.82187 -1.61678,0 -2.88325,1.25307 -2.88325,2.85256 0,1.67358 1.18956,2.84268 2.89348,2.84268 1.1303,0 1.90994,-0.363 2.52307,-1.17616 l -1.34726,-0.78246 c -0.23954,0.37606 -0.635,0.57468 -1.14477,0.57468 -0.65228,0 -1.11548,-0.31151 -1.30422,-0.87736 l -0.0109,-0.0328 h 4.12644 z m -4.07988,-0.64029 0.0169,-0.0356 c 0.22578,-0.48437 0.67063,-0.76236 1.22061,-0.76236 0.58314,0 1.00647,0.27129 1.19098,0.76412 l 0.0127,0.0339 z m -4.7565,0.64029 c 0,-1.63513 -1.1998,-2.82187 -2.85256,-2.82187 -1.61678,0 -2.88325,1.25307 -2.88325,2.85256 0,1.67358 1.18956,2.84268 2.89313,2.84268 1.13065,0 1.90994,-0.363 2.52342,-1.17616 l -1.34726,-0.78246 c -0.23989,0.37606 -0.635,0.57468 -1.14512,0.57468 -0.65228,0 -1.11548,-0.31151 -1.30422,-0.87736 l -0.0109,-0.0328 h 4.12679 z m -4.07987,-0.64029 0.0169,-0.0356 c 0.22578,-0.48437 0.67063,-0.76236 1.22026,-0.76236 0.58349,0 1.00647,0.27129 1.19133,0.76412 l 0.0127,0.0339 z m 13.66343,-2.05776 h 1.67393 v 0.62865 c 0.34185,-0.46249 0.84455,-0.744 1.45768,-0.744 1.19627,0 1.97026,0.7941 1.97026,2.13113 v 3.40536 h -1.73919 v -3.06352 c 0,-0.62336 -0.27129,-0.98531 -0.82409,-0.98531 -0.49283,0 -0.85478,0.35207 -0.85478,1.06574 l 0.001,2.98309 h -1.68522 z m -8.87095,-2.36749 h 1.67429 v 7.78863 h -1.67429 z m -8.80145,4.71629 h -3.11644 v 3.07234 h -1.67428 v -7.78863 h 1.67428 v 3.03495 h 3.11644 v -3.03495 h 1.67428 v 7.78863 h -1.67428 z" style="fill:#000000;fill-rule:nonzero;stroke:none" />
</g>
</svg>